<svg width="168" height="72" viewBox="0 0 168 72" fill="none" xmlns="http://www.w3.org/2000/svg">
<path fill-rule="evenodd" clip-rule="evenodd" d="M49.9722 37.7482C64.4369 26.7041 70.2225 -0.433546 88.3641 0.833472C107.22 2.15039 109.339 31.249 124.18 42.9309C136.783 52.8504 161.093 47.6003 166.816 62.5836C172.539 77.5679 153.215 90.4758 148.16 105.715C143.551 119.607 147.2 135.588 138.653 147.478C128.572 161.502 114.328 173.829 97.2703 176.513C79.4774 179.313 61.0359 172.753 46.643 161.956C32.8063 151.576 27.5695 134.433 20.2704 118.751C12.313 101.655 -4.24745 84.3058 2.25127 66.5825C8.80746 48.7024 34.8294 49.31 49.9722 37.7482Z" fill="#BCCEFF"/>
</svg>
