<svg width="167" height="96" viewBox="0 0 167 96" fill="none" xmlns="http://www.w3.org/2000/svg">
<path d="M4.17833 64V22.4H31.5917V29.44H13.0317V38.88H27.1117V45.3867H13.0317V64H4.17833ZM37.1342 64V32H45.7742V64H37.1342ZM41.4542 28.32C39.9253 28.32 38.7697 27.9289 37.9875 27.1467C37.2053 26.3289 36.8142 25.28 36.8142 24C36.8142 22.72 37.2053 21.6889 37.9875 20.9067C38.7697 20.0889 39.9253 19.68 41.4542 19.68C42.9831 19.68 44.1386 20.0889 44.9208 20.9067C45.7031 21.6889 46.0942 22.72 46.0942 24C46.0942 25.28 45.7031 26.3289 44.9208 27.1467C44.1386 27.9289 42.9831 28.32 41.4542 28.32ZM53.6967 64V32H61.6967V36.8H62.9767C63.6167 35.2 64.5944 33.8667 65.91 32.8C67.2611 31.7333 69.2344 31.2 71.83 31.2C75.3856 31.2 78.0522 32.32 79.83 34.56C81.6078 36.8 82.4967 39.84 82.4967 43.68V64H73.8567V45.12C73.8567 42.9156 73.4656 41.2267 72.6833 40.0533C71.9011 38.8444 70.6211 38.24 68.8433 38.24C66.7811 38.24 65.1811 39.0578 64.0433 40.6933C62.9056 42.2933 62.3367 44.3022 62.3367 46.72V64H53.6967ZM100.613 64.64C97.6978 64.64 95.2978 63.9289 93.4133 62.5067C91.5289 61.0489 90.1244 59.0578 89.2 56.5333C88.2756 54.0089 87.8133 51.1467 87.8133 47.9467C87.8133 44.64 88.2756 41.7422 89.2 39.2533C90.16 36.7644 91.5822 34.8267 93.4667 33.44C95.3867 32.0533 97.7689 31.36 100.613 31.36C102.711 31.36 104.418 31.7333 105.733 32.48C107.084 33.2267 108.151 34.24 108.933 35.52H110.213V21.3333H118.853V64H110.853V59.84H109.573C108.827 61.1911 107.742 62.3289 106.32 63.2533C104.898 64.1778 102.996 64.64 100.613 64.64ZM103.067 58.56C105.236 58.56 106.96 57.6178 108.24 55.7333C109.556 53.8133 110.213 51.2356 110.213 48C110.213 44.7289 109.556 42.1511 108.24 40.2667C106.96 38.3822 105.236 37.44 103.067 37.44C101.111 37.44 99.5644 38.3289 98.4267 40.1067C97.3244 41.8489 96.7733 44.48 96.7733 48C96.7733 51.52 97.3244 54.1689 98.4267 55.9467C99.5644 57.6889 101.111 58.56 103.067 58.56ZM126.653 64V32H134.546V37.8667H135.826C136.039 36.8 136.43 35.8044 136.999 34.88C137.604 33.92 138.51 33.1556 139.719 32.5867C140.928 31.9822 142.546 31.68 144.573 31.68H146.279V39.4667H143.933C140.91 39.4667 138.706 40.2311 137.319 41.76C135.968 43.2889 135.293 45.5822 135.293 48.64V64H126.653Z" fill="#5B59FE"/>
<path d="M63.9795 68.9316C63.9678 68.8965 64.0029 68.8086 64.085 68.668C64.167 68.5156 64.2549 68.334 64.3486 68.123C64.4541 67.9004 64.5537 67.6543 64.6475 67.3848C64.7529 67.1035 64.8232 66.8164 64.8584 66.5234C64.9053 66.2305 64.9053 65.9375 64.8584 65.6445C64.8115 65.3516 64.6885 65.0703 64.4893 64.8008C64.3721 64.6602 64.1963 64.584 63.9619 64.5723C63.7393 64.5488 63.4814 64.584 63.1885 64.6777C62.9072 64.7598 62.6084 64.8945 62.292 65.082C61.9873 65.2578 61.7061 65.4688 61.4482 65.7148C61.1904 65.9492 60.9678 66.2129 60.7803 66.5059C60.6045 66.7988 60.5049 67.0977 60.4814 67.4023C60.458 67.6484 60.4639 67.877 60.499 68.0879C60.5459 68.2988 60.6045 68.4922 60.6748 68.668C60.7451 68.8438 60.8213 69.0078 60.9033 69.1602C60.9854 69.3125 61.0615 69.4473 61.1318 69.5645C61.2256 69.7285 61.3721 69.9102 61.5713 70.1094C61.7705 70.3086 61.9873 70.5371 62.2217 70.7949C62.4561 71.041 62.6904 71.3223 62.9248 71.6387C63.1592 71.9551 63.3643 72.3125 63.54 72.7109C63.7158 73.1094 63.8389 73.5547 63.9092 74.0469C63.9795 74.5391 63.9736 75.084 63.8916 75.6816C63.7627 76.5488 63.5576 77.2695 63.2764 77.8438C62.9951 78.4297 62.6846 78.8984 62.3447 79.25C62.0166 79.6016 61.6826 79.8535 61.3428 80.0059C61.0029 80.1699 60.7217 80.2754 60.499 80.3223C60.3232 80.3574 60.1123 80.3867 59.8662 80.4102C59.6318 80.4453 59.3799 80.4395 59.1104 80.3926C58.8525 80.3574 58.5889 80.2754 58.3193 80.1465C58.0498 80.0293 57.8096 79.8418 57.5986 79.584C57.3525 79.291 57.1592 78.9746 57.0186 78.6348C56.8896 78.3418 56.7959 78.002 56.7373 77.6152C56.667 77.2402 56.6963 76.8477 56.8252 76.4375C56.9189 76.332 57.0186 76.2383 57.124 76.1562C57.2295 76.0742 57.335 76.0039 57.4404 75.9453C57.5576 75.875 57.6807 75.8105 57.8096 75.752C57.9619 75.7051 58.1143 75.6641 58.2666 75.6289C58.3955 75.6055 58.5303 75.5938 58.6709 75.5938C58.8232 75.582 58.9639 75.5996 59.0928 75.6465C58.917 75.8457 58.7939 76.0332 58.7236 76.209C58.6768 76.3027 58.6416 76.3848 58.6182 76.4551C58.5713 76.6777 58.5537 76.9414 58.5654 77.2461C58.5889 77.5625 58.6533 77.8613 58.7588 78.1426C58.876 78.4355 59.04 78.6816 59.251 78.8809C59.4619 79.0918 59.7432 79.2031 60.0947 79.2148C60.9502 79.2383 61.6768 78.5703 62.2744 77.2109C62.4736 76.7891 62.5732 76.3613 62.5732 75.9277C62.585 75.4941 62.5322 75.0781 62.415 74.6797C62.3096 74.2812 62.1631 73.9121 61.9756 73.5723C61.7998 73.2207 61.6182 72.9219 61.4307 72.6758C61.2432 72.4297 61.0146 72.166 60.7451 71.8848C60.4873 71.5918 60.2295 71.2754 59.9717 70.9355C59.7139 70.5957 59.4795 70.2266 59.2686 69.8281C59.0693 69.4297 58.9346 68.9961 58.8643 68.5273C58.7705 67.8711 58.8291 67.2734 59.04 66.7344C59.2627 66.1836 59.5557 65.7031 59.9189 65.293C60.2939 64.8828 60.6982 64.5488 61.1318 64.291C61.5771 64.0332 61.9697 63.8691 62.3096 63.7988C64.1963 63.4238 65.4326 63.7402 66.0186 64.748C66.2646 65.1348 66.3994 65.5449 66.4229 65.9785C66.4463 66.4121 66.417 66.8164 66.335 67.1914C66.2646 67.5547 66.1709 67.8652 66.0537 68.123C65.9482 68.3691 65.8779 68.5039 65.8428 68.5273C65.7725 68.5977 65.6611 68.6738 65.5088 68.7559C65.3564 68.8379 65.1104 68.9141 64.7705 68.9844C64.6768 69.0078 64.583 69.0195 64.4893 69.0195C64.4072 69.0195 64.3193 69.0137 64.2256 69.002C64.1318 68.9902 64.0498 68.9668 63.9795 68.9316ZM74.0342 73.3438C73.6826 73.8594 73.2842 74.3633 72.8389 74.8555C72.3936 75.3359 71.9189 75.7695 71.415 76.1562C70.9229 76.5312 70.4131 76.8359 69.8857 77.0703C69.3701 77.3047 68.8662 77.4219 68.374 77.4219C68.1162 77.4219 67.835 77.3574 67.5303 77.2285C67.2373 77.1113 66.9678 76.9238 66.7217 76.666C66.4756 76.4082 66.2764 76.0742 66.124 75.6641C65.9834 75.2539 65.9424 74.7559 66.001 74.1699C66.0479 73.6895 66.1943 73.1855 66.4404 72.6582C66.6982 72.1191 67.0088 71.627 67.3721 71.1816C67.7471 70.7363 68.1631 70.3672 68.6201 70.0742C69.0889 69.7812 69.5576 69.6348 70.0264 69.6348C70.4717 69.6348 70.7939 69.7461 70.9932 69.9688C71.1924 70.1914 71.2803 70.4668 71.2568 70.7949C71.2217 71.1582 71.1162 71.4922 70.9404 71.7969C70.7764 72.1016 70.5771 72.377 70.3428 72.623C70.1084 72.8691 69.8564 73.0918 69.5869 73.291C69.3291 73.4902 69.083 73.6719 68.8486 73.8359C68.5908 74.0117 68.3447 74.1816 68.1104 74.3457C67.876 74.498 67.6709 74.6387 67.4951 74.7676C67.5068 75.0605 67.5596 75.3066 67.6533 75.5059C67.7471 75.7051 67.8643 75.8691 68.0049 75.998C68.1455 76.1152 68.3037 76.2031 68.4795 76.2617C68.667 76.3086 68.8545 76.332 69.042 76.332C69.4404 76.332 69.8564 76.209 70.29 75.9629C70.7236 75.7051 71.1455 75.4004 71.5557 75.0488C71.9775 74.6855 72.3643 74.3105 72.7158 73.9238C73.0791 73.5371 73.3779 73.2031 73.6123 72.9219C73.6943 72.8281 73.7764 72.7754 73.8584 72.7637C73.9521 72.7402 74.0225 72.752 74.0693 72.7988C74.1279 72.834 74.1572 72.9043 74.1572 73.0098C74.1572 73.1035 74.1162 73.2148 74.0342 73.3438ZM69.5342 70.6367C69.3936 70.6367 69.2236 70.707 69.0244 70.8477C68.8369 70.9883 68.6494 71.1934 68.4619 71.4629C68.2744 71.7207 68.0986 72.043 67.9346 72.4297C67.7705 72.8047 67.6475 73.2383 67.5654 73.7305C67.7061 73.625 67.8584 73.5195 68.0225 73.4141C68.1865 73.2969 68.3506 73.1738 68.5146 73.0449C69.0186 72.6582 69.3701 72.3184 69.5693 72.0254C69.7686 71.7324 69.8799 71.4805 69.9033 71.2695C69.9268 71.0469 69.9033 70.8887 69.833 70.7949C69.7627 70.6895 69.6631 70.6367 69.5342 70.6367ZM81.7861 73.502C81.6221 73.7363 81.4111 74.0293 81.1533 74.3809C80.8955 74.7207 80.626 75.0664 80.3447 75.418C80.0752 75.7578 79.8057 76.0742 79.5361 76.3672C79.2783 76.6484 79.0615 76.8477 78.8857 76.9648C78.7686 77.0352 78.6338 77.0938 78.4814 77.1406C78.3291 77.1875 78.1709 77.2168 78.0068 77.2285C77.8545 77.2402 77.708 77.2285 77.5674 77.1934C77.4268 77.1699 77.3037 77.123 77.1982 77.0527C77.0928 76.9707 77.0049 76.8535 76.9346 76.7012C76.876 76.5723 76.8174 76.4023 76.7588 76.1914C76.7119 75.9805 76.6943 75.7168 76.7061 75.4004C76.4248 75.8691 76.1143 76.2324 75.7744 76.4902C75.4346 76.7363 75.1123 76.918 74.8076 77.0352C74.4561 77.1641 74.1045 77.2402 73.7529 77.2637C73.5889 77.2637 73.4131 77.2051 73.2256 77.0879C73.0381 76.9824 72.8799 76.8125 72.751 76.5781C72.6221 76.332 72.54 76.0215 72.5049 75.6465C72.4697 75.2598 72.5166 74.8027 72.6455 74.2754C72.8096 73.5605 73.0674 72.9102 73.4189 72.3242C73.7822 71.7383 74.1748 71.2402 74.5967 70.8301C75.0186 70.4082 75.4346 70.0918 75.8447 69.8809C76.2549 69.6699 76.5947 69.5762 76.8643 69.5996C77.1807 69.6582 77.4385 69.752 77.6377 69.8809C77.8018 69.998 77.9072 70.1738 77.9541 70.4082C78.0127 70.6309 77.9189 70.9297 77.6729 71.3047C77.8369 71.2695 77.9717 71.2461 78.0771 71.2344C78.1943 71.2227 78.2822 71.2168 78.3408 71.2168C78.4111 71.2168 78.458 71.2227 78.4814 71.2344C78.4932 71.2578 78.499 71.3105 78.499 71.3926C78.499 71.4629 78.4814 71.5977 78.4463 71.7969C78.4111 71.9961 78.3584 72.2656 78.2881 72.6055C78.2178 72.9453 78.124 73.3848 78.0068 73.9238C77.9834 74.0293 77.96 74.1289 77.9365 74.2227C77.9248 74.3047 77.9072 74.3926 77.8838 74.4863C77.8721 74.5684 77.8545 74.668 77.8311 74.7852C77.8076 74.9023 77.7783 75.0488 77.7432 75.2246C77.7314 75.3301 77.7256 75.4473 77.7256 75.5762C77.7373 75.6934 77.7607 75.8047 77.7959 75.9102C77.8311 76.0156 77.8838 76.1035 77.9541 76.1738C78.0361 76.2324 78.1475 76.2617 78.2881 76.2617C78.4053 76.2617 78.5576 76.1914 78.7451 76.0508C78.9326 75.8984 79.1318 75.7109 79.3428 75.4883C79.5537 75.2539 79.7705 75.002 79.9932 74.7324C80.2275 74.4512 80.4443 74.1816 80.6436 73.9238C80.8428 73.666 81.0186 73.4375 81.1709 73.2383C81.335 73.0391 81.4521 72.8926 81.5225 72.7988C81.6162 72.6934 81.71 72.6348 81.8037 72.623C81.8975 72.5996 81.9678 72.623 82.0146 72.6934C82.0615 72.7637 82.0674 72.8691 82.0322 73.0098C82.0088 73.1504 81.9268 73.3145 81.7861 73.502ZM76.6357 74.2754C76.6943 74.041 76.7646 73.7656 76.8467 73.4492C76.9287 73.1328 76.999 72.8281 77.0576 72.5352C77.1162 72.2422 77.1572 72.002 77.1807 71.8145C77.2158 71.6152 77.21 71.5215 77.1631 71.5332C77.1045 71.5449 77.04 71.5625 76.9697 71.5859C76.9111 71.6094 76.835 71.627 76.7412 71.6387C76.6475 71.6504 76.5537 71.668 76.46 71.6914C76.5537 71.5039 76.6064 71.3516 76.6182 71.2344C76.6416 71.1055 76.6475 71.0059 76.6357 70.9355C76.624 70.8535 76.6006 70.7891 76.5654 70.7422C76.4365 70.6367 76.208 70.7246 75.8799 71.0059C75.5635 71.2754 75.1943 71.7793 74.7725 72.5176C74.5967 72.8223 74.4561 73.1504 74.3506 73.502C74.2451 73.8418 74.1689 74.1641 74.1221 74.4688C74.0869 74.7734 74.0811 75.043 74.1045 75.2773C74.1279 75.5 74.1748 75.6465 74.2451 75.7168C74.374 75.8457 74.5205 75.9102 74.6846 75.9102C74.8486 75.8984 75.0127 75.8516 75.1768 75.7695C75.3525 75.6758 75.5225 75.5586 75.6865 75.418C75.8623 75.2773 76.0146 75.1309 76.1436 74.9785C76.2842 74.8262 76.3955 74.6855 76.4775 74.5566C76.5713 74.4277 76.624 74.334 76.6357 74.2754ZM79.9404 76.9121C79.8584 77.041 79.7705 77.123 79.6768 77.1582C79.5713 77.2051 79.4834 77.2109 79.4131 77.1758C79.3311 77.1523 79.2783 77.0938 79.2549 77C79.2314 76.9062 79.2549 76.7891 79.3252 76.6484C79.3604 76.5781 79.4424 76.4199 79.5713 76.1738C79.6885 75.9277 79.835 75.6348 80.0107 75.2949C80.1748 74.9434 80.3564 74.5684 80.5557 74.1699C80.7549 73.7598 80.9424 73.373 81.1182 73.0098C81.3057 72.6465 81.4756 72.3242 81.6279 72.043C81.7803 71.75 81.8916 71.5391 81.9619 71.4102C81.833 71.293 81.7451 71.2109 81.6982 71.1641C81.6514 71.1055 81.6162 70.9883 81.5928 70.8125C81.5693 70.6602 81.6045 70.4609 81.6982 70.2148C81.792 69.9688 81.915 69.7344 82.0674 69.5117C82.2197 69.2773 82.3896 69.0781 82.5771 68.9141C82.7646 68.75 82.9463 68.668 83.1221 68.668C83.4502 68.668 83.6787 68.7734 83.8076 68.9844C83.9482 69.1953 84.0303 69.4121 84.0537 69.6348C84.0771 69.7871 84.0654 69.9805 84.0186 70.2148C83.9717 70.4492 83.8838 70.6602 83.7549 70.8477C83.79 70.8711 83.8369 70.9004 83.8955 70.9355C83.9541 70.959 84.0479 70.9707 84.1768 70.9707C84.3643 70.9707 84.4932 70.959 84.5635 70.9355C84.6455 70.9121 84.7686 70.9004 84.9326 70.9004C85.1318 70.9004 85.2959 70.9531 85.4248 71.0586C85.5537 71.1523 85.6592 71.2754 85.7412 71.4277C85.8232 71.5684 85.8818 71.7266 85.917 71.9023C85.9639 72.0664 85.9932 72.2188 86.0049 72.3594C86.04 72.6523 85.9639 72.957 85.7764 73.2734C85.5889 73.5898 85.3604 73.9355 85.0908 74.3105C84.9268 74.5449 84.7627 74.8086 84.5986 75.1016C84.4346 75.3945 84.3643 75.6582 84.3877 75.8926C84.4111 76.0449 84.4521 76.168 84.5107 76.2617C84.5693 76.3555 84.7334 76.4023 85.0029 76.4023C85.2021 76.4023 85.4189 76.332 85.6533 76.1914C85.8994 76.0391 86.1455 75.8516 86.3916 75.6289C86.6494 75.3945 86.9014 75.1426 87.1475 74.873C87.3936 74.5918 87.6221 74.3223 87.833 74.0645C88.0439 73.7949 88.2197 73.5547 88.3604 73.3438C88.5127 73.1328 88.624 72.9805 88.6943 72.8867C88.7529 72.793 88.8291 72.7285 88.9229 72.6934C89.0166 72.6582 89.0986 72.6582 89.1689 72.6934C89.2393 72.7285 89.2803 72.7988 89.292 72.9043C89.3154 73.0098 89.2744 73.1504 89.1689 73.3262C89.0986 73.4434 88.9756 73.6309 88.7998 73.8887C88.6357 74.1465 88.4307 74.4336 88.1846 74.75C87.9502 75.0664 87.6865 75.3945 87.3936 75.7344C87.1006 76.0625 86.79 76.3672 86.4619 76.6484C86.1455 76.918 85.8232 77.1406 85.4951 77.3164C85.1787 77.4922 84.874 77.5801 84.5811 77.5801C84.2764 77.5801 84.0244 77.5215 83.8252 77.4043C83.626 77.2871 83.4619 77.1465 83.333 76.9824C83.2158 76.8066 83.1279 76.6191 83.0693 76.4199C83.0225 76.209 83.0049 76.0156 83.0166 75.8398C83.0283 75.6992 83.0635 75.5527 83.1221 75.4004C83.1924 75.2363 83.2686 75.0723 83.3506 74.9082C83.4443 74.7324 83.5381 74.5625 83.6318 74.3984C83.7373 74.2227 83.8311 74.0527 83.9131 73.8887C84.1123 73.5488 84.2705 73.2617 84.3877 73.0273C84.5166 72.7812 84.5811 72.5762 84.5811 72.4121C84.5811 72.3066 84.5576 72.2129 84.5107 72.1309C84.4639 72.0488 84.3877 72.0078 84.2822 72.0078C84.2119 72.0078 84.1592 72.0137 84.124 72.0254C84.1006 72.0254 84.0713 72.0254 84.0361 72.0254C84.0127 72.0254 83.9717 72.0312 83.9131 72.043C83.8662 72.043 83.79 72.043 83.6846 72.043C83.5322 72.043 83.4033 72.0195 83.2979 71.9727C83.1924 71.9258 83.0928 71.8906 82.999 71.8672C82.9521 71.9492 82.8467 72.125 82.6826 72.3945C82.5186 72.6641 82.3252 72.9805 82.1025 73.3438C81.8916 73.707 81.6631 74.0879 81.417 74.4863C81.1826 74.8848 80.96 75.2598 80.749 75.6113C80.5381 75.9512 80.3623 76.2441 80.2217 76.4902C80.0693 76.7246 79.9756 76.8652 79.9404 76.9121ZM90.9092 76.4023C91.2725 76.4023 91.6709 76.2617 92.1045 75.9805C92.5498 75.6875 92.9775 75.3477 93.3877 74.9609C93.8096 74.5742 94.1904 74.1816 94.5303 73.7832C94.8818 73.373 95.1455 73.0449 95.3213 72.7988C95.4268 72.6465 95.5264 72.5586 95.6201 72.5352C95.7139 72.5 95.7842 72.5117 95.8311 72.5703C95.8779 72.6289 95.8955 72.7227 95.8838 72.8516C95.8721 72.9688 95.8193 73.1035 95.7256 73.2559C95.6436 73.3965 95.5029 73.6016 95.3037 73.8711C95.1162 74.1289 94.8877 74.416 94.6182 74.7324C94.3604 75.0371 94.0615 75.3535 93.7217 75.6816C93.3936 75.998 93.0479 76.291 92.6846 76.5605C92.3213 76.8184 91.9463 77.0293 91.5596 77.1934C91.1729 77.3691 90.792 77.457 90.417 77.457C89.9014 77.457 89.4678 77.3574 89.1162 77.1582C88.7764 76.9707 88.501 76.7246 88.29 76.4199C88.0908 76.1152 87.9502 75.7812 87.8682 75.418C87.7861 75.043 87.7451 74.6738 87.7451 74.3105C87.7451 73.9473 87.8271 73.4961 87.9912 72.957C88.1553 72.418 88.3955 71.9023 88.7119 71.4102C89.04 70.9062 89.4502 70.4785 89.9424 70.127C90.4346 69.7637 91.0146 69.582 91.6826 69.582C92.0576 69.582 92.374 69.7109 92.6318 69.9688C92.9014 70.2266 93.0303 70.5781 93.0186 71.0234C93.0186 71.2344 92.9834 71.4453 92.9131 71.6562C92.8428 71.8555 92.749 72.0371 92.6318 72.2012C92.5146 72.3535 92.374 72.4766 92.21 72.5703C92.0576 72.6641 91.8877 72.7109 91.7002 72.7109C91.5479 72.7109 91.4307 72.6582 91.3486 72.5527C91.2783 72.4355 91.2314 72.3066 91.208 72.166C91.1963 72.0137 91.1963 71.8672 91.208 71.7266C91.2314 71.5859 91.2549 71.4922 91.2783 71.4453C91.3369 71.3633 91.4014 71.3047 91.4717 71.2695C91.542 71.2344 91.624 71.1934 91.7178 71.1465C91.7881 71.1113 91.8408 71.0586 91.876 70.9883C91.9229 70.918 91.9463 70.8418 91.9463 70.7598C91.9463 70.6777 91.9229 70.6074 91.876 70.5488C91.8291 70.4902 91.7529 70.4609 91.6475 70.4609C91.542 70.4609 91.3486 70.5488 91.0674 70.7246C90.7979 70.8887 90.5166 71.1406 90.2236 71.4805C89.9424 71.8086 89.6904 72.2246 89.4678 72.7285C89.2451 73.2324 89.1279 73.8184 89.1162 74.4863C89.1045 74.873 89.1572 75.1895 89.2744 75.4355C89.3916 75.6816 89.5381 75.875 89.7139 76.0156C89.8896 76.1562 90.083 76.2559 90.2939 76.3145C90.5049 76.373 90.71 76.4023 90.9092 76.4023ZM103.53 73.1328C103.612 73.0391 103.694 72.9922 103.776 72.9922C103.87 72.9805 103.94 73.0039 103.987 73.0625C104.046 73.1094 104.069 73.1855 104.058 73.291C104.058 73.3965 104.011 73.5137 103.917 73.6426C103.694 73.9473 103.437 74.2637 103.144 74.5918C102.851 74.9082 102.534 75.2188 102.194 75.5234C101.866 75.8281 101.532 76.1152 101.192 76.3848C100.853 76.6543 100.524 76.877 100.208 77.0527C99.8564 77.252 99.5576 77.3516 99.3115 77.3516C99.0771 77.3516 98.8428 77.1992 98.6084 76.8945C98.3975 76.625 98.292 76.3379 98.292 76.0332C98.3037 75.7168 98.374 75.3242 98.5029 74.8555C98.585 74.5625 98.6963 74.2168 98.8369 73.8184C98.9893 73.4082 99.1064 73.0156 99.1885 72.6406C99.2822 72.2656 99.3115 71.9492 99.2764 71.6914C99.2412 71.4219 99.0889 71.2871 98.8193 71.2871C98.6318 71.2871 98.4268 71.3516 98.2041 71.4805C97.9932 71.6094 97.7764 71.7793 97.5537 71.9902C97.3428 72.1895 97.1377 72.418 96.9385 72.6758C96.7393 72.9336 96.5635 73.1855 96.4111 73.4316C96.3174 73.8887 96.2236 74.3398 96.1299 74.7852C96.0479 75.1602 95.96 75.5703 95.8662 76.0156C95.7842 76.4492 95.7021 76.8359 95.6201 77.1758C95.5498 77.2344 95.4736 77.2754 95.3916 77.2988C95.3096 77.3223 95.2334 77.334 95.1631 77.334C95.0811 77.334 94.999 77.3281 94.917 77.3164C94.8232 77.293 94.7354 77.2578 94.6533 77.2109C94.583 77.1641 94.5127 77.0996 94.4424 77.0176C94.3721 76.9473 94.3193 76.8477 94.2842 76.7188C94.8115 74.5508 95.2275 72.8105 95.5322 71.498C95.8369 70.1855 96.0713 69.1836 96.2354 68.4922C96.4229 67.6719 96.5518 67.1035 96.6221 66.7871C96.6572 66.5645 96.6865 66.3477 96.71 66.1367C96.7334 65.9492 96.7451 65.7559 96.7451 65.5566C96.7451 65.3574 96.7275 65.1758 96.6924 65.0117C96.7861 64.9531 96.8857 64.9062 96.9912 64.8711C97.1084 64.8359 97.2197 64.8066 97.3252 64.7832C97.4541 64.748 97.583 64.7188 97.7119 64.6953C97.8408 64.6719 97.958 64.6602 98.0635 64.6602C98.1572 64.6602 98.2451 64.6719 98.3271 64.6953C98.4092 64.707 98.4619 64.7422 98.4854 64.8008C98.5557 64.8594 98.585 64.9766 98.5732 65.1523C98.5732 65.3281 98.5615 65.5098 98.5381 65.6973C98.4912 65.9199 98.4385 66.1602 98.3799 66.418C98.1338 67.3672 97.8584 68.293 97.5537 69.1953C97.249 70.0859 96.9678 71.041 96.71 72.0605C96.8623 71.8262 97.0439 71.5859 97.2549 71.3398C97.4658 71.0938 97.6943 70.8711 97.9404 70.6719C98.1982 70.4609 98.4678 70.291 98.749 70.1621C99.0303 70.0215 99.3291 69.9512 99.6455 69.9512C99.8096 69.9512 99.9619 69.9805 100.103 70.0391C100.255 70.0859 100.384 70.1738 100.489 70.3027C100.606 70.4199 100.694 70.584 100.753 70.7949C100.812 70.9941 100.835 71.2461 100.823 71.5508C100.823 71.7383 100.8 71.9316 100.753 72.1309C100.718 72.3301 100.665 72.5527 100.595 72.7988C100.524 73.0332 100.431 73.2969 100.313 73.5898C100.208 73.8828 100.079 74.2227 99.9268 74.6094C99.8213 74.8789 99.7393 75.1074 99.6807 75.2949C99.6221 75.4824 99.6338 75.6465 99.7158 75.7871C99.8213 75.9746 100.026 76.0215 100.331 75.9277C100.647 75.8223 101.116 75.5176 101.737 75.0137C101.878 74.8965 102.036 74.75 102.212 74.5742C102.388 74.3984 102.558 74.2227 102.722 74.0469C102.886 73.8594 103.038 73.6836 103.179 73.5195C103.319 73.3555 103.437 73.2266 103.53 73.1328ZM108.241 75.1719C108.112 75.043 108.019 74.9199 107.96 74.8027C107.913 74.6738 107.878 74.5508 107.854 74.4336C107.831 74.3047 107.831 74.1758 107.854 74.0469C107.901 73.8828 107.972 73.7305 108.065 73.5898C108.147 73.4609 108.259 73.332 108.399 73.2031C108.54 73.0625 108.728 72.9336 108.962 72.8164C109.114 72.4414 109.249 72.0488 109.366 71.6387C109.495 71.2168 109.606 70.8359 109.7 70.4961C109.806 70.0977 109.899 69.6992 109.981 69.3008C110.274 68.3047 110.427 67.4961 110.438 66.875C110.45 66.2422 110.438 65.8262 110.403 65.627C110.392 65.5449 110.38 65.4629 110.368 65.3809C110.345 65.3105 110.321 65.2344 110.298 65.1523C110.286 65.0586 110.269 64.9707 110.245 64.8887C110.374 64.8184 110.485 64.7598 110.579 64.7129C110.685 64.666 110.772 64.6309 110.843 64.6074C110.925 64.5723 111.001 64.5488 111.071 64.5371C111.341 64.4785 111.593 64.4492 111.827 64.4492C112.073 64.4375 112.208 64.4785 112.231 64.5723C112.243 64.6309 112.255 64.7363 112.267 64.8887C112.29 65.041 112.302 65.2285 112.302 65.4512C112.302 65.6738 112.284 65.9258 112.249 66.207C112.214 66.4766 112.149 66.7637 112.056 67.0684C111.974 67.3379 111.862 67.7129 111.722 68.1934C111.593 68.6035 111.423 69.1543 111.212 69.8457C111.001 70.5254 110.726 71.3984 110.386 72.4648C110.737 72.3477 111.124 72.2363 111.546 72.1309C111.968 72.0254 112.396 71.9375 112.829 71.8672C113.274 71.7969 113.714 71.7441 114.147 71.709C114.593 71.6738 115.003 71.668 115.378 71.6914C115.448 71.6914 115.495 71.7266 115.519 71.7969C115.554 71.8555 115.554 71.9199 115.519 71.9902C115.495 72.0605 115.431 72.1309 115.325 72.2012C115.231 72.2598 115.091 72.2949 114.903 72.3066C114.669 72.3301 114.411 72.3594 114.13 72.3945C113.849 72.418 113.556 72.459 113.251 72.5176C112.958 72.5645 112.665 72.6289 112.372 72.7109C112.079 72.7812 111.804 72.8691 111.546 72.9746C111.347 73.0449 111.147 73.1152 110.948 73.1855C110.784 73.2441 110.608 73.3145 110.421 73.3965C110.245 73.4668 110.099 73.5312 109.981 73.5898L109.577 74.873C110.257 75.3535 110.778 75.8457 111.142 76.3496C111.517 76.8535 111.786 77.3164 111.95 77.7383C112.149 78.2305 112.261 78.7109 112.284 79.1797C112.284 79.6953 112.208 80.2109 112.056 80.7266C111.903 81.2539 111.698 81.752 111.44 82.2207C111.194 82.7012 110.901 83.1465 110.562 83.5566C110.233 83.9668 109.882 84.3184 109.507 84.6113C109.144 84.9043 108.769 85.127 108.382 85.2793C108.007 85.4316 107.649 85.4902 107.31 85.4551C107.063 85.4316 106.858 85.3496 106.694 85.209C106.53 85.0801 106.407 84.9102 106.325 84.6992C106.243 84.5 106.196 84.2715 106.185 84.0137C106.173 83.7676 106.196 83.5215 106.255 83.2754C106.302 83.0293 106.401 82.5723 106.554 81.9043C106.683 81.3418 106.882 80.5215 107.151 79.4434C107.421 78.377 107.784 76.9531 108.241 75.1719ZM109.278 75.998C109.114 76.584 108.968 77.123 108.839 77.6152C108.722 78.1074 108.622 78.541 108.54 78.916C108.435 79.3496 108.353 79.7422 108.294 80.0938C108.188 80.5391 108.077 80.9785 107.96 81.4121C107.854 81.8457 107.772 82.2324 107.714 82.5723C107.644 82.9238 107.614 83.2051 107.626 83.416C107.638 83.627 107.714 83.7324 107.854 83.7324C108.194 83.7559 108.546 83.6211 108.909 83.3281C109.284 83.0469 109.624 82.6836 109.929 82.2383C110.233 81.8047 110.485 81.3301 110.685 80.8145C110.884 80.3105 110.983 79.8418 110.983 79.4082C110.983 78.9277 110.907 78.4531 110.755 77.9844C110.649 77.7383 110.526 77.498 110.386 77.2637C110.257 77.0645 110.099 76.8535 109.911 76.6309C109.735 76.3965 109.524 76.1855 109.278 75.998ZM118.946 74.2051C118.829 74.6504 118.671 75.0664 118.472 75.4531C118.272 75.8398 118.032 76.1738 117.751 76.4551C117.481 76.7363 117.171 76.9531 116.819 77.1055C116.479 77.2695 116.104 77.3516 115.694 77.3516C115.214 77.3516 114.833 77.2461 114.552 77.0352C114.282 76.8359 114.077 76.584 113.937 76.2793C113.808 75.9746 113.731 75.6406 113.708 75.2773C113.673 74.9141 113.655 74.5742 113.655 74.2578C113.655 74.0352 113.685 73.7891 113.743 73.5195C113.79 73.25 113.86 72.9746 113.954 72.6934C114.048 72.4121 114.165 72.1309 114.306 71.8496C114.458 71.5684 114.634 71.3105 114.833 71.0762C114.903 70.877 115.009 70.7012 115.149 70.5488C115.302 70.3965 115.472 70.2734 115.659 70.1797C115.858 70.0742 116.069 69.998 116.292 69.9512C116.515 69.8926 116.731 69.8633 116.942 69.8633C116.978 69.8633 117.007 69.8691 117.03 69.8809C117.065 69.8926 117.101 69.9043 117.136 69.916C117.288 69.9277 117.476 69.9863 117.698 70.0918C117.933 70.1973 118.155 70.3555 118.366 70.5664C118.589 70.7773 118.776 71.0469 118.929 71.375C119.081 71.6914 119.157 72.0781 119.157 72.5352C119.157 72.6289 119.151 72.7461 119.14 72.8867C119.128 73.0156 119.116 73.127 119.104 73.2207C119.374 73.1152 119.655 72.9863 119.948 72.834C120.241 72.6816 120.522 72.5234 120.792 72.3594C121.073 72.1836 121.331 72.0078 121.565 71.832C121.8 71.6562 121.987 71.498 122.128 71.3574C122.245 71.252 122.345 71.1934 122.427 71.1816C122.509 71.1699 122.567 71.1934 122.603 71.252C122.638 71.3105 122.644 71.3926 122.62 71.498C122.597 71.6035 122.532 71.7207 122.427 71.8496C122.368 71.9199 122.216 72.0605 121.97 72.2715C121.735 72.4824 121.454 72.7109 121.126 72.957C120.798 73.2031 120.44 73.4434 120.054 73.6777C119.667 73.9121 119.298 74.0879 118.946 74.2051ZM115.976 71.5332C115.94 71.6387 115.923 71.75 115.923 71.8672C115.923 72.0547 115.935 72.2539 115.958 72.4648C115.981 72.6641 116.04 72.8457 116.134 73.0098C116.228 73.1738 116.374 73.3145 116.573 73.4316C116.784 73.5371 117.071 73.5898 117.435 73.5898C117.493 73.5898 117.552 73.5898 117.61 73.5898C117.669 73.5781 117.728 73.5664 117.786 73.5547C117.821 73.4023 117.851 73.2676 117.874 73.1504C117.909 73.0215 117.927 72.9102 117.927 72.8164C117.95 72.5938 117.95 72.3652 117.927 72.1309C117.903 71.8965 117.856 71.6855 117.786 71.498C117.728 71.2988 117.646 71.1406 117.54 71.0234C117.446 70.8945 117.329 70.8301 117.188 70.8301C116.966 70.8301 116.749 70.8945 116.538 71.0234C116.339 71.1406 116.151 71.3105 115.976 71.5332ZM114.851 74.627C114.851 74.8379 114.862 75.0488 114.886 75.2598C114.909 75.459 114.956 75.6406 115.026 75.8047C115.097 75.957 115.19 76.0859 115.308 76.1914C115.425 76.2852 115.577 76.332 115.765 76.332C115.976 76.332 116.169 76.2852 116.345 76.1914C116.521 76.0859 116.679 75.957 116.819 75.8047C116.96 75.6406 117.083 75.459 117.188 75.2598C117.306 75.0488 117.405 74.832 117.487 74.6094C117.405 74.6211 117.323 74.6328 117.241 74.6445C117.171 74.6445 117.089 74.6445 116.995 74.6445C116.55 74.6445 116.163 74.5156 115.835 74.2578C115.519 73.9883 115.272 73.6484 115.097 73.2383C115.026 73.4844 114.968 73.7246 114.921 73.959C114.874 74.1934 114.851 74.416 114.851 74.627ZM120.159 76.9121C120.077 77.041 119.989 77.123 119.896 77.1582C119.79 77.2051 119.702 77.2109 119.632 77.1758C119.55 77.1523 119.497 77.0938 119.474 77C119.45 76.9062 119.474 76.7891 119.544 76.6484C119.579 76.5781 119.661 76.4199 119.79 76.1738C119.907 75.9277 120.054 75.6348 120.229 75.2949C120.394 74.9434 120.575 74.5684 120.774 74.1699C120.974 73.7598 121.161 73.373 121.337 73.0098C121.524 72.6465 121.694 72.3242 121.847 72.043C121.999 71.75 122.11 71.5391 122.181 71.4102C122.052 71.293 121.964 71.2109 121.917 71.1641C121.87 71.1055 121.835 70.9883 121.812 70.8125C121.788 70.6602 121.823 70.4609 121.917 70.2148C122.011 69.9688 122.134 69.7344 122.286 69.5117C122.438 69.2773 122.608 69.0781 122.796 68.9141C122.983 68.75 123.165 68.668 123.341 68.668C123.669 68.668 123.897 68.7734 124.026 68.9844C124.167 69.1953 124.249 69.4121 124.272 69.6348C124.296 69.7871 124.284 69.9805 124.237 70.2148C124.19 70.4492 124.103 70.6602 123.974 70.8477C124.009 70.8711 124.056 70.9004 124.114 70.9355C124.173 70.959 124.267 70.9707 124.396 70.9707C124.583 70.9707 124.712 70.959 124.782 70.9355C124.864 70.9121 124.987 70.9004 125.151 70.9004C125.351 70.9004 125.515 70.9531 125.644 71.0586C125.772 71.1523 125.878 71.2754 125.96 71.4277C126.042 71.5684 126.101 71.7266 126.136 71.9023C126.183 72.0664 126.212 72.2188 126.224 72.3594C126.259 72.6523 126.183 72.957 125.995 73.2734C125.808 73.5898 125.579 73.9355 125.31 74.3105C125.146 74.5449 124.981 74.8086 124.817 75.1016C124.653 75.3945 124.583 75.6582 124.606 75.8926C124.63 76.0449 124.671 76.168 124.729 76.2617C124.788 76.3555 124.952 76.4023 125.222 76.4023C125.421 76.4023 125.638 76.332 125.872 76.1914C126.118 76.0391 126.364 75.8516 126.61 75.6289C126.868 75.3945 127.12 75.1426 127.366 74.873C127.612 74.5918 127.841 74.3223 128.052 74.0645C128.263 73.7949 128.438 73.5547 128.579 73.3438C128.731 73.1328 128.843 72.9805 128.913 72.8867C128.972 72.793 129.048 72.7285 129.142 72.6934C129.235 72.6582 129.317 72.6582 129.388 72.6934C129.458 72.7285 129.499 72.7988 129.511 72.9043C129.534 73.0098 129.493 73.1504 129.388 73.3262C129.317 73.4434 129.194 73.6309 129.019 73.8887C128.854 74.1465 128.649 74.4336 128.403 74.75C128.169 75.0664 127.905 75.3945 127.612 75.7344C127.319 76.0625 127.009 76.3672 126.681 76.6484C126.364 76.918 126.042 77.1406 125.714 77.3164C125.397 77.4922 125.093 77.5801 124.8 77.5801C124.495 77.5801 124.243 77.5215 124.044 77.4043C123.845 77.2871 123.681 77.1465 123.552 76.9824C123.435 76.8066 123.347 76.6191 123.288 76.4199C123.241 76.209 123.224 76.0156 123.235 75.8398C123.247 75.6992 123.282 75.5527 123.341 75.4004C123.411 75.2363 123.487 75.0723 123.569 74.9082C123.663 74.7324 123.757 74.5625 123.851 74.3984C123.956 74.2227 124.05 74.0527 124.132 73.8887C124.331 73.5488 124.489 73.2617 124.606 73.0273C124.735 72.7812 124.8 72.5762 124.8 72.4121C124.8 72.3066 124.776 72.2129 124.729 72.1309C124.683 72.0488 124.606 72.0078 124.501 72.0078C124.431 72.0078 124.378 72.0137 124.343 72.0254C124.319 72.0254 124.29 72.0254 124.255 72.0254C124.231 72.0254 124.19 72.0312 124.132 72.043C124.085 72.043 124.009 72.043 123.903 72.043C123.751 72.043 123.622 72.0195 123.517 71.9727C123.411 71.9258 123.312 71.8906 123.218 71.8672C123.171 71.9492 123.065 72.125 122.901 72.3945C122.737 72.6641 122.544 72.9805 122.321 73.3438C122.11 73.707 121.882 74.0879 121.636 74.4863C121.401 74.8848 121.179 75.2598 120.968 75.6113C120.757 75.9512 120.581 76.2441 120.44 76.4902C120.288 76.7246 120.194 76.8652 120.159 76.9121ZM142.255 73.1328C142.337 73.0391 142.419 72.9922 142.501 72.9922C142.595 72.9805 142.665 73.0039 142.712 73.0625C142.771 73.1094 142.794 73.1855 142.782 73.291C142.782 73.3965 142.735 73.5137 142.642 73.6426C142.419 73.9473 142.161 74.2637 141.868 74.5918C141.575 74.9082 141.259 75.2188 140.919 75.5234C140.591 75.8281 140.257 76.1152 139.917 76.3848C139.577 76.6543 139.249 76.877 138.933 77.0527C138.581 77.252 138.282 77.3516 138.036 77.3516C137.802 77.3516 137.567 77.1992 137.333 76.8945C137.122 76.625 137.017 76.3379 137.017 76.0332C137.028 75.7168 137.099 75.3242 137.228 74.8555C137.31 74.5625 137.421 74.2168 137.562 73.8184C137.714 73.4082 137.831 73.0156 137.913 72.6406C138.007 72.2656 138.036 71.9492 138.001 71.6914C137.966 71.4219 137.813 71.2871 137.544 71.2871C137.356 71.2871 137.151 71.3516 136.929 71.4805C136.718 71.6094 136.501 71.7793 136.278 71.9902C136.067 72.1895 135.862 72.418 135.663 72.6758C135.464 72.9336 135.288 73.1855 135.136 73.4316C135.042 73.8887 134.948 74.3398 134.854 74.7852C134.772 75.1602 134.685 75.5703 134.591 76.0156C134.509 76.4492 134.427 76.8359 134.345 77.1758C134.274 77.2344 134.198 77.2754 134.116 77.2988C134.034 77.3223 133.958 77.334 133.888 77.334C133.806 77.334 133.724 77.3281 133.642 77.3164C133.548 77.293 133.46 77.2578 133.378 77.2109C133.308 77.1641 133.237 77.0996 133.167 77.0176C133.097 76.9473 133.044 76.8477 133.009 76.7188C133.536 74.5508 133.952 72.8105 134.257 71.498C134.562 70.1855 134.796 69.1836 134.96 68.4922C135.147 67.6719 135.276 67.1035 135.347 66.7871C135.382 66.5645 135.411 66.3477 135.435 66.1367C135.458 65.9492 135.47 65.7559 135.47 65.5566C135.47 65.3574 135.452 65.1758 135.417 65.0117C135.511 64.9531 135.61 64.9062 135.716 64.8711C135.833 64.8359 135.944 64.8066 136.05 64.7832C136.179 64.748 136.308 64.7188 136.437 64.6953C136.565 64.6719 136.683 64.6602 136.788 64.6602C136.882 64.6602 136.97 64.6719 137.052 64.6953C137.134 64.707 137.187 64.7422 137.21 64.8008C137.28 64.8594 137.31 64.9766 137.298 65.1523C137.298 65.3281 137.286 65.5098 137.263 65.6973C137.216 65.9199 137.163 66.1602 137.104 66.418C136.858 67.3672 136.583 68.293 136.278 69.1953C135.974 70.0859 135.692 71.041 135.435 72.0605C135.587 71.8262 135.769 71.5859 135.979 71.3398C136.19 71.0938 136.419 70.8711 136.665 70.6719C136.923 70.4609 137.192 70.291 137.474 70.1621C137.755 70.0215 138.054 69.9512 138.37 69.9512C138.534 69.9512 138.687 69.9805 138.827 70.0391C138.979 70.0859 139.108 70.1738 139.214 70.3027C139.331 70.4199 139.419 70.584 139.478 70.7949C139.536 70.9941 139.56 71.2461 139.548 71.5508C139.548 71.7383 139.524 71.9316 139.478 72.1309C139.442 72.3301 139.39 72.5527 139.319 72.7988C139.249 73.0332 139.155 73.2969 139.038 73.5898C138.933 73.8828 138.804 74.2227 138.651 74.6094C138.546 74.8789 138.464 75.1074 138.405 75.2949C138.347 75.4824 138.358 75.6465 138.44 75.7871C138.546 75.9746 138.751 76.0215 139.056 75.9277C139.372 75.8223 139.841 75.5176 140.462 75.0137C140.603 74.8965 140.761 74.75 140.937 74.5742C141.112 74.3984 141.282 74.2227 141.446 74.0469C141.61 73.8594 141.763 73.6836 141.903 73.5195C142.044 73.3555 142.161 73.2266 142.255 73.1328ZM146.772 74.2051C146.655 74.6504 146.497 75.0664 146.298 75.4531C146.099 75.8398 145.858 76.1738 145.577 76.4551C145.308 76.7363 144.997 76.9531 144.646 77.1055C144.306 77.2695 143.931 77.3516 143.521 77.3516C143.04 77.3516 142.659 77.2461 142.378 77.0352C142.108 76.8359 141.903 76.584 141.763 76.2793C141.634 75.9746 141.558 75.6406 141.534 75.2773C141.499 74.9141 141.481 74.5742 141.481 74.2578C141.481 74.0352 141.511 73.7891 141.569 73.5195C141.616 73.25 141.687 72.9746 141.78 72.6934C141.874 72.4121 141.991 72.1309 142.132 71.8496C142.284 71.5684 142.46 71.3105 142.659 71.0762C142.729 70.877 142.835 70.7012 142.976 70.5488C143.128 70.3965 143.298 70.2734 143.485 70.1797C143.685 70.0742 143.896 69.998 144.118 69.9512C144.341 69.8926 144.558 69.8633 144.769 69.8633C144.804 69.8633 144.833 69.8691 144.856 69.8809C144.892 69.8926 144.927 69.9043 144.962 69.916C145.114 69.9277 145.302 69.9863 145.524 70.0918C145.759 70.1973 145.981 70.3555 146.192 70.5664C146.415 70.7773 146.603 71.0469 146.755 71.375C146.907 71.6914 146.983 72.0781 146.983 72.5352C146.983 72.6289 146.978 72.7461 146.966 72.8867C146.954 73.0156 146.942 73.127 146.931 73.2207C147.2 73.1152 147.481 72.9863 147.774 72.834C148.067 72.6816 148.349 72.5234 148.618 72.3594C148.899 72.1836 149.157 72.0078 149.392 71.832C149.626 71.6562 149.813 71.498 149.954 71.3574C150.071 71.252 150.171 71.1934 150.253 71.1816C150.335 71.1699 150.394 71.1934 150.429 71.252C150.464 71.3105 150.47 71.3926 150.446 71.498C150.423 71.6035 150.358 71.7207 150.253 71.8496C150.194 71.9199 150.042 72.0605 149.796 72.2715C149.562 72.4824 149.28 72.7109 148.952 72.957C148.624 73.2031 148.267 73.4434 147.88 73.6777C147.493 73.9121 147.124 74.0879 146.772 74.2051ZM143.802 71.5332C143.767 71.6387 143.749 71.75 143.749 71.8672C143.749 72.0547 143.761 72.2539 143.784 72.4648C143.808 72.6641 143.866 72.8457 143.96 73.0098C144.054 73.1738 144.2 73.3145 144.399 73.4316C144.61 73.5371 144.897 73.5898 145.261 73.5898C145.319 73.5898 145.378 73.5898 145.437 73.5898C145.495 73.5781 145.554 73.5664 145.612 73.5547C145.647 73.4023 145.677 73.2676 145.7 73.1504C145.735 73.0215 145.753 72.9102 145.753 72.8164C145.776 72.5938 145.776 72.3652 145.753 72.1309C145.729 71.8965 145.683 71.6855 145.612 71.498C145.554 71.2988 145.472 71.1406 145.366 71.0234C145.272 70.8945 145.155 70.8301 145.015 70.8301C144.792 70.8301 144.575 70.8945 144.364 71.0234C144.165 71.1406 143.978 71.3105 143.802 71.5332ZM142.677 74.627C142.677 74.8379 142.688 75.0488 142.712 75.2598C142.735 75.459 142.782 75.6406 142.853 75.8047C142.923 75.957 143.017 76.0859 143.134 76.1914C143.251 76.2852 143.403 76.332 143.591 76.332C143.802 76.332 143.995 76.2852 144.171 76.1914C144.347 76.0859 144.505 75.957 144.646 75.8047C144.786 75.6406 144.909 75.459 145.015 75.2598C145.132 75.0488 145.231 74.832 145.313 74.6094C145.231 74.6211 145.149 74.6328 145.067 74.6445C144.997 74.6445 144.915 74.6445 144.821 74.6445C144.376 74.6445 143.989 74.5156 143.661 74.2578C143.345 73.9883 143.099 73.6484 142.923 73.2383C142.853 73.4844 142.794 73.7246 142.747 73.959C142.7 74.1934 142.677 74.416 142.677 74.627ZM147.388 84.5059C147.306 84.4707 147.224 84.418 147.142 84.3477C147.071 84.2891 147.001 84.2129 146.931 84.1191C146.86 84.0371 146.802 83.9316 146.755 83.8027C147.083 82.5488 147.364 81.459 147.599 80.5332C147.821 79.6074 148.015 78.834 148.179 78.2129C148.354 77.4863 148.507 76.877 148.636 76.3848C148.753 75.916 148.87 75.4473 148.987 74.9785C149.081 74.5684 149.181 74.1289 149.286 73.6602C149.403 73.1914 149.509 72.752 149.603 72.3418C149.72 71.8848 149.79 71.5215 149.813 71.252C149.837 70.9707 149.749 70.7305 149.55 70.5312C149.69 70.4141 149.831 70.3262 149.972 70.2676C150.124 70.1973 150.259 70.1504 150.376 70.127C150.505 70.0918 150.634 70.0801 150.763 70.0918C151.079 70.1152 151.272 70.2148 151.343 70.3906C151.425 70.5664 151.437 70.8477 151.378 71.2344C151.366 71.293 151.354 71.3457 151.343 71.3926C151.343 71.4277 151.343 71.4688 151.343 71.5156C151.507 71.3281 151.688 71.1465 151.888 70.9707C152.087 70.7949 152.286 70.6367 152.485 70.4961C152.696 70.3555 152.907 70.2441 153.118 70.1621C153.341 70.0684 153.552 70.0215 153.751 70.0215C154.021 70.0215 154.237 70.0918 154.401 70.2324C154.577 70.3613 154.712 70.5371 154.806 70.7598C154.899 70.9824 154.958 71.2344 154.981 71.5156C155.005 71.7852 155.011 72.0547 154.999 72.3242C154.987 72.6172 154.935 72.9277 154.841 73.2559C154.759 73.584 154.642 73.918 154.489 74.2578C154.337 74.5977 154.161 74.9316 153.962 75.2598C153.763 75.5879 153.552 75.8926 153.329 76.1738C153.376 76.1855 153.405 76.1973 153.417 76.209C153.429 76.209 153.435 76.2148 153.435 76.2266C153.435 76.2266 153.44 76.2324 153.452 76.2441C153.476 76.2441 153.517 76.2441 153.575 76.2441C153.845 76.2441 154.12 76.1738 154.401 76.0332C154.683 75.8926 154.958 75.7168 155.228 75.5059C155.497 75.2832 155.755 75.043 156.001 74.7852C156.259 74.5273 156.487 74.2812 156.687 74.0469C156.897 73.8008 157.073 73.584 157.214 73.3965C157.354 73.1973 157.46 73.0566 157.53 72.9746C157.624 72.8574 157.712 72.7812 157.794 72.7461C157.876 72.6992 157.94 72.6934 157.987 72.7285C158.034 72.7637 158.058 72.834 158.058 72.9395C158.058 73.0332 158.022 73.1562 157.952 73.3086C157.905 73.4141 157.806 73.584 157.653 73.8184C157.501 74.0527 157.313 74.3164 157.091 74.6094C156.868 74.9023 156.61 75.207 156.317 75.5234C156.036 75.8398 155.737 76.127 155.421 76.3848C155.104 76.6426 154.776 76.8535 154.437 77.0176C154.108 77.1934 153.786 77.2812 153.47 77.2812C153.317 77.2812 153.194 77.2754 153.101 77.2637C153.007 77.252 152.925 77.2285 152.854 77.1934C152.796 77.1699 152.737 77.1406 152.679 77.1055C152.62 77.082 152.55 77.0527 152.468 77.0176C152.257 77.1816 152.04 77.3047 151.817 77.3867C151.595 77.4805 151.378 77.5273 151.167 77.5273C150.968 77.5273 150.792 77.4922 150.64 77.4219C150.499 77.3633 150.382 77.2754 150.288 77.1582C150.194 77.0527 150.118 76.9355 150.06 76.8066C150.001 76.666 149.954 76.5312 149.919 76.4023C149.907 76.4492 149.896 76.4902 149.884 76.5254C149.884 76.5605 149.878 76.6074 149.866 76.666C149.726 77.2285 149.579 77.8789 149.427 78.6172C149.298 79.25 149.14 80.0176 148.952 80.9199C148.776 81.834 148.589 82.8711 148.39 84.0312C148.319 84.3477 148.196 84.5293 148.021 84.5762C147.833 84.623 147.622 84.5996 147.388 84.5059ZM150.604 73.6074C150.546 73.8066 150.481 74.041 150.411 74.3105C150.353 74.5684 150.282 74.8789 150.2 75.2422C150.294 75.1719 150.399 75.1191 150.517 75.084C150.634 75.0488 150.751 75.0312 150.868 75.0312C150.997 75.0312 151.161 75.1016 151.36 75.2422C151.56 75.3711 151.8 75.5117 152.081 75.6641C152.257 75.4531 152.438 75.2188 152.626 74.9609C152.825 74.6914 153.001 74.416 153.153 74.1348C153.317 73.8535 153.452 73.5664 153.558 73.2734C153.675 72.9805 153.739 72.6992 153.751 72.4297C153.774 72.0781 153.733 71.8027 153.628 71.6035C153.522 71.4043 153.347 71.3047 153.101 71.3047C152.737 71.3047 152.339 71.5215 151.905 71.9551C151.483 72.377 151.05 72.9277 150.604 73.6074ZM164.737 73.3438C164.386 73.8594 163.987 74.3633 163.542 74.8555C163.097 75.3359 162.622 75.7695 162.118 76.1562C161.626 76.5312 161.116 76.8359 160.589 77.0703C160.073 77.3047 159.569 77.4219 159.077 77.4219C158.819 77.4219 158.538 77.3574 158.233 77.2285C157.94 77.1113 157.671 76.9238 157.425 76.666C157.179 76.4082 156.979 76.0742 156.827 75.6641C156.687 75.2539 156.646 74.7559 156.704 74.1699C156.751 73.6895 156.897 73.1855 157.144 72.6582C157.401 72.1191 157.712 71.627 158.075 71.1816C158.45 70.7363 158.866 70.3672 159.323 70.0742C159.792 69.7812 160.261 69.6348 160.729 69.6348C161.175 69.6348 161.497 69.7461 161.696 69.9688C161.896 70.1914 161.983 70.4668 161.96 70.7949C161.925 71.1582 161.819 71.4922 161.644 71.7969C161.479 72.1016 161.28 72.377 161.046 72.623C160.812 72.8691 160.56 73.0918 160.29 73.291C160.032 73.4902 159.786 73.6719 159.552 73.8359C159.294 74.0117 159.048 74.1816 158.813 74.3457C158.579 74.498 158.374 74.6387 158.198 74.7676C158.21 75.0605 158.263 75.3066 158.356 75.5059C158.45 75.7051 158.567 75.8691 158.708 75.998C158.849 76.1152 159.007 76.2031 159.183 76.2617C159.37 76.3086 159.558 76.332 159.745 76.332C160.144 76.332 160.56 76.209 160.993 75.9629C161.427 75.7051 161.849 75.4004 162.259 75.0488C162.681 74.6855 163.067 74.3105 163.419 73.9238C163.782 73.5371 164.081 73.2031 164.315 72.9219C164.397 72.8281 164.479 72.7754 164.562 72.7637C164.655 72.7402 164.726 72.752 164.772 72.7988C164.831 72.834 164.86 72.9043 164.86 73.0098C164.86 73.1035 164.819 73.2148 164.737 73.3438ZM160.237 70.6367C160.097 70.6367 159.927 70.707 159.728 70.8477C159.54 70.9883 159.353 71.1934 159.165 71.4629C158.978 71.7207 158.802 72.043 158.638 72.4297C158.474 72.8047 158.351 73.2383 158.269 73.7305C158.409 73.625 158.562 73.5195 158.726 73.4141C158.89 73.2969 159.054 73.1738 159.218 73.0449C159.722 72.6582 160.073 72.3184 160.272 72.0254C160.472 71.7324 160.583 71.4805 160.606 71.2695C160.63 71.0469 160.606 70.8887 160.536 70.7949C160.466 70.6895 160.366 70.6367 160.237 70.6367Z" fill="#5B59FE"/>
</svg>
