<svg width="199" height="157" viewBox="0 0 199 157" fill="none" xmlns="http://www.w3.org/2000/svg">
<path fill-rule="evenodd" clip-rule="evenodd" d="M158.852 -101.745C177.949 -100.446 194.11 -89.1848 212.874 -85.4145C242.126 -79.5369 287.587 -100.452 300.035 -73.377C313.155 -44.8442 256.287 -23.3852 255.828 8.00713C255.381 38.6176 300.153 57.5183 297.678 88.0321C295.322 117.066 271.793 146.55 243.897 155.077C215.186 163.853 187.217 140.302 158.852 130.468C139.076 123.613 122.71 110.197 102.212 105.957C69.003 99.0878 17.3551 128.574 2.51128 98.1288C-12.9462 66.4254 47.7341 42.623 54.4548 8.00713C59.2912 -16.9033 23.4789 -40.8675 33.9834 -63.9726C44.1502 -86.3346 76.8663 -85.9441 100.406 -93.0648C119.583 -98.8657 138.861 -103.104 158.852 -101.745Z" fill="#BCCEFF"/>
</svg>
