<svg width="296" height="206" viewBox="0 0 296 206" fill="none" xmlns="http://www.w3.org/2000/svg">
<g clip-path="url(#clip0_1_11435)">
<path d="M106.175 118.555C116.319 99.868 135.669 85.5196 156.153 86.9018C141.043 104.108 132.233 126.356 131.28 149.711C130.944 158.719 131.465 168.774 125.754 175.52C122.2 179.717 116.768 181.749 111.427 182.176C106.086 182.602 100.746 181.591 95.4767 180.585L94.1984 180.996C93.7118 159.507 96.0313 137.242 106.175 118.555Z" fill="#F0F0F0"/>
<path d="M156.183 87.3517C141.036 94.9879 128.12 107.741 120.191 123.295C118.477 126.657 117.018 130.225 116.381 133.996C115.744 137.77 116.189 141.362 117.42 144.946C118.545 148.223 120.058 151.438 120.403 154.944C120.767 158.639 119.469 162.094 117.132 164.836C114.272 168.192 110.432 170.271 106.609 172.167C102.364 174.273 97.9232 176.39 94.9168 180.32C94.5525 180.796 93.8682 180.177 94.232 179.701C99.4626 172.863 108.416 171.578 114.625 166.07C117.522 163.5 119.697 160 119.56 155.898C119.44 152.312 117.882 148.995 116.716 145.688C115.491 142.215 114.88 138.724 115.319 135.021C115.768 131.234 117.098 127.599 118.722 124.206C122.386 116.552 127.4 109.525 133.144 103.451C139.745 96.4688 147.438 90.7207 155.89 86.4553C156.413 86.1915 156.703 87.0897 156.183 87.3517Z" fill="white"/>
<path d="M122.514 118.097C120.192 116.319 118.549 113.734 117.878 110.804C117.208 107.875 117.554 104.791 118.854 102.104C119.119 101.561 119.937 101.967 119.672 102.51C118.456 105.01 118.135 107.883 118.764 110.609C119.394 113.336 120.933 115.737 123.105 117.379C123.577 117.737 122.983 118.452 122.514 118.097Z" fill="white"/>
<path d="M116.641 143.363C122.459 142.473 127.744 139.319 131.44 134.529C131.806 134.055 132.49 134.674 132.125 135.148C128.269 140.125 122.764 143.396 116.707 144.308C116.129 144.395 116.066 143.449 116.641 143.363Z" fill="white"/>
<path d="M140.192 97.6345C140.953 98.5186 141.913 99.1907 142.984 99.5905C144.054 99.9903 145.203 100.105 146.327 99.9252C146.903 99.8311 146.966 100.776 146.394 100.87C145.151 101.063 143.882 100.934 142.698 100.495C141.514 100.056 140.45 99.3204 139.601 98.3517C139.513 98.2674 139.46 98.1514 139.451 98.0273C139.442 97.9032 139.479 97.7803 139.554 97.6836C139.632 97.589 139.744 97.5309 139.863 97.5217C139.983 97.5125 140.101 97.553 140.192 97.6345Z" fill="white"/>
<path d="M196.908 145.852C196.55 145.921 196.192 145.991 195.831 146.068C191.021 147.029 186.294 148.397 181.696 150.16C181.338 150.29 180.978 150.428 180.624 150.568C169.59 154.938 159.426 161.416 150.649 169.671C147.16 172.96 143.914 176.521 140.941 180.325C136.834 185.579 132.781 191.618 127.415 195.044C126.859 195.408 126.282 195.735 125.688 196.024L94.7764 182.597C94.7207 182.53 94.6618 182.47 94.6059 182.402L93.3483 181.925C93.4885 181.718 93.6383 181.506 93.7786 181.298C93.8595 181.178 93.9472 181.06 94.0281 180.939C94.0842 180.86 94.1407 180.78 94.187 180.705C94.2056 180.679 94.2245 180.652 94.2402 180.633C94.2865 180.558 94.3371 180.494 94.3804 180.426C95.2143 179.239 96.0577 178.055 96.9104 176.876C96.9133 176.869 96.9133 176.869 96.9231 176.865C103.442 167.898 110.734 159.423 119.022 152.376C119.271 152.164 119.523 151.944 119.787 151.738C123.539 148.584 127.532 145.755 131.725 143.282C134.025 141.935 136.388 140.711 138.806 139.615C145.06 136.794 151.698 135.021 158.477 134.361C171.992 133.047 185.757 136.273 196.123 145.165C196.388 145.392 196.646 145.617 196.908 145.852Z" fill="#F0F0F0"/>
<path d="M196.676 146.233C180.192 142.779 162.547 144.819 147.274 152.238C143.972 153.843 140.756 155.771 138.079 158.381C135.401 160.992 133.691 164.141 132.614 167.779C131.628 171.104 130.988 174.625 129.248 177.642C127.414 180.822 124.39 182.762 120.948 183.478C116.735 184.354 112.474 183.593 108.331 182.697C103.731 181.702 98.9685 180.592 94.3085 181.835C93.7439 181.985 93.5538 181.059 94.1176 180.909C102.225 178.747 110.113 183.366 118.237 182.883C122.028 182.657 125.777 181.234 128.025 177.873C129.991 174.934 130.655 171.303 131.625 167.927C132.643 164.382 134.163 161.209 136.642 158.53C139.178 155.789 142.329 153.725 145.578 152.04C152.903 148.238 160.946 145.789 169.025 144.561C178.309 143.148 187.757 143.409 196.958 145.332C197.527 145.451 197.242 146.351 196.676 146.233Z" fill="white"/>
<path d="M152.117 149.553C151.285 146.669 151.46 143.569 152.609 140.807C153.758 138.046 155.807 135.802 158.39 134.476C158.913 134.21 159.333 135.049 158.809 135.316C156.401 136.546 154.493 138.636 153.428 141.21C152.363 143.784 152.212 146.672 153.001 149.353C153.172 149.935 152.287 150.132 152.117 149.553Z" fill="white"/>
<path d="M132.901 166.024C138.059 168.981 144.092 169.795 149.797 168.301C150.362 168.153 150.552 169.079 149.988 169.227C144.048 170.77 137.772 169.91 132.411 166.82C131.9 166.525 132.393 165.73 132.901 166.024Z" fill="white"/>
<path d="M177.996 144.36C178.096 145.546 178.475 146.688 179.101 147.682C179.726 148.677 180.577 149.493 181.578 150.058C182.092 150.346 181.598 151.14 181.088 150.854C179.985 150.225 179.046 149.322 178.352 148.225C177.659 147.128 177.233 145.87 177.112 144.56C177.09 144.438 177.114 144.312 177.179 144.207C177.243 144.103 177.343 144.028 177.458 143.997C177.576 143.972 177.698 143.995 177.799 144.063C177.899 144.131 177.97 144.238 177.996 144.36Z" fill="white"/>
<path d="M138.024 168.004C133.695 146.084 128.284 138.776 128.284 138.776L126.217 137.097L123.73 135.075L123.742 134.815L123.153 134.605L123.014 134.492L122.787 134.31L122.751 134.351L122.674 134.434L111.424 130.43L97.152 125.353L90.5431 116.357C89.4667 114.892 88.081 113.708 86.4945 112.897C84.908 112.087 83.1638 111.672 81.3987 111.686L60.292 111.85C57.4381 111.872 54.6954 113.011 52.603 115.044L38.7299 128.52L17.1129 139.331L17.0764 139.293L16.8494 139.463L13.5094 141.135L13.6472 141.886L11.58 143.449C11.58 143.449 6.16864 150.249 1.83956 170.645C0.738297 175.835 0.196213 186.967 0.000549855 200.686C-0.00927829 201.38 0.112734 202.069 0.359488 202.713C0.606242 203.357 0.972818 203.944 1.4379 204.438C1.90298 204.933 2.45729 205.325 3.0686 205.593C3.6799 205.862 4.33601 206 4.99877 206H120.459L134.87 206C135.532 206 136.188 205.862 136.799 205.594C137.41 205.326 137.964 204.934 138.429 204.44C138.894 203.946 139.261 203.36 139.508 202.717C139.755 202.073 139.877 201.385 139.868 200.691C139.677 185.764 139.135 173.632 138.024 168.004Z" fill="#3F3D56"/>
<path d="M152.838 19.116C148.346 19.116 144.038 20.9848 140.862 24.3111C137.685 27.6375 135.901 32.149 135.901 36.8531C135.901 41.5573 137.685 46.0688 140.862 49.3952C144.038 52.7215 148.346 54.5902 152.838 54.5902H279.063C283.555 54.5902 287.863 52.7215 291.039 49.3952C294.216 46.0688 296 41.5573 296 36.8531C296 32.149 294.216 27.6375 291.039 24.3111C287.863 20.9848 283.555 19.116 279.063 19.116H152.838Z" fill="#E5E5E5"/>
<path d="M152.838 22.7057C149.255 22.7057 145.819 24.1962 143.285 26.8494C140.752 29.5025 139.329 33.101 139.329 36.8532C139.329 40.6053 140.752 44.2037 143.285 46.8569C145.819 49.5101 149.255 51.0006 152.838 51.0006H279.063C282.645 51.0006 286.082 49.5101 288.615 46.8569C291.149 44.2037 292.572 40.6053 292.572 36.8532C292.572 33.101 291.149 29.5025 288.615 26.8494C286.082 24.1962 282.645 22.7057 279.063 22.7057H152.838Z" fill="white"/>
<path d="M74.16 103.382C89.4317 103.382 101.812 90.4178 101.812 74.4251C101.812 58.4324 89.4317 45.4678 74.16 45.4678C58.8883 45.4678 46.5082 58.4324 46.5082 74.4251C46.5082 90.4178 58.8883 103.382 74.16 103.382Z" fill="#9E616A"/>
<path d="M67.0861 101.965C66.9679 101.692 66.8501 101.419 66.7327 101.145C66.7779 101.146 66.8228 101.153 66.868 101.154L67.0861 101.965Z" fill="#2F2E41"/>
<path d="M45.7392 46.7846C47.1378 45.6163 48.7723 44.5413 50.5605 44.6017C52.3485 44.6621 54.1617 46.3533 53.7913 48.1862C57.0757 42.0964 62.3033 37.4126 68.5568 34.9571C74.8102 32.5015 81.6898 32.431 87.9879 34.7579C92.432 36.3999 96.7902 39.6848 97.8111 44.5027C98.0731 45.7395 98.1294 47.0956 98.8668 48.0999C99.7965 49.3661 101.575 49.6525 103.04 49.2071C103.055 49.2026 103.069 49.1981 103.084 49.1936C103.332 49.1051 103.599 49.0964 103.851 49.1686C104.103 49.2408 104.329 49.3906 104.499 49.5986C104.669 49.8067 104.775 50.0633 104.805 50.3354C104.834 50.6075 104.784 50.8826 104.663 51.125L103.405 53.5808C104.99 53.9508 106.637 53.9142 108.206 53.4739C108.467 53.4023 108.742 53.417 108.994 53.5157C109.247 53.6145 109.464 53.7927 109.615 54.0257C109.767 54.2587 109.847 54.5352 109.842 54.8173C109.838 55.0994 109.751 55.3732 109.592 55.6012C105.446 61.5627 98.5188 65.4123 91.4498 65.367C86.4256 65.3349 81.3496 63.5216 76.46 64.7315C74.5683 65.1996 72.8008 66.1052 71.2869 67.382C69.7731 68.6587 68.5515 70.2742 67.7116 72.1099C66.8718 73.9455 66.435 75.9548 66.4334 77.9903C66.4318 80.0258 66.8654 82.0358 67.7023 83.873C66.2002 82.1524 63.2964 82.5597 61.7598 84.2467C60.2233 85.9337 59.8255 88.4516 59.9804 90.7774C60.2171 94.3344 61.5479 97.6862 62.9509 100.948C51.1882 100.561 40.0625 91.9196 36.3176 80.2324C32.557 68.4963 36.4982 54.5045 45.7392 46.7846Z" fill="#2F2E41"/>
<path opacity="0.2" d="M27.2166 161.386L34.9723 205.576L39.6259 206L27.2166 161.386Z" fill="black"/>
<path opacity="0.2" d="M112.647 158.053L104.892 205.544L100.238 206L112.647 158.053Z" fill="black"/>
<path d="M52.3542 31.9127C50.8671 32.5629 49.3155 31.8503 48.6647 30.2183C48.004 28.5613 48.6211 26.8793 50.132 26.2186C51.643 25.5579 53.167 26.2723 53.8384 27.9559C54.4997 29.6144 53.8893 31.2414 52.3542 31.9127ZM49.5056 22.9572L48.3232 23.4742C48.0279 23.6019 47.6975 23.6088 47.3975 23.4935C47.0975 23.3783 46.8498 23.1494 46.7032 22.852L46.6448 22.7322C45.3725 20.3295 45.2269 17.4093 46.2141 14.0574C47.1286 11.0505 47.5085 8.93579 46.7446 7.01997C45.8614 4.80493 43.9754 4.11106 41.5703 5.11621C40.6375 5.5241 40.3406 5.5176 39.6066 6.2802C39.4469 6.44809 39.2565 6.5806 39.0469 6.66981C38.8373 6.75902 38.6126 6.80311 38.3864 6.79945C38.1676 6.79675 37.9517 6.74795 37.7514 6.65597C37.551 6.56398 37.3704 6.43069 37.2204 6.26405C36.9312 5.9429 36.7692 5.51881 36.7671 5.07744C36.765 4.63606 36.9229 4.21029 37.2089 3.8861C38.4428 2.53351 39.931 1.46344 41.5796 0.743408C46.7471 -1.51624 49.3484 1.81981 50.5388 4.80525C51.7032 7.72536 51.0482 10.4347 49.9958 13.9436C49.1139 16.8593 49.1653 19.0198 50.1671 21.168C50.2394 21.3304 50.2797 21.5064 50.2854 21.6855C50.2911 21.8646 50.2622 22.0431 50.2005 22.2102C50.1387 22.3773 50.0453 22.5296 49.9259 22.658C49.8065 22.7864 49.6635 22.8882 49.5056 22.9572Z" fill="#5B59FE"/>
<path d="M180.72 45.3125H155.606C155.526 45.3131 155.447 45.2971 155.373 45.2656C155.299 45.234 155.232 45.1874 155.175 45.1285C155.119 45.0697 155.074 44.9996 155.043 44.9225C155.012 44.8454 154.997 44.7626 154.997 44.6791C154.997 44.5955 155.012 44.5128 155.043 44.4357C155.074 44.3585 155.119 44.2885 155.175 44.2296C155.232 44.1707 155.299 44.1242 155.373 44.0926C155.447 44.061 155.526 44.045 155.606 44.0456H180.72C180.879 44.0467 181.032 44.114 181.145 44.2327C181.257 44.3513 181.32 44.5118 181.32 44.6791C181.32 44.8463 181.257 45.0068 181.145 45.1255C181.032 45.2442 180.879 45.3114 180.72 45.3125Z" fill="#5B59FE"/>
<path d="M212.578 45.5237H187.464C187.384 45.5242 187.305 45.5083 187.231 45.4767C187.158 45.4451 187.09 45.3985 187.034 45.3397C186.977 45.2808 186.932 45.2108 186.902 45.1336C186.871 45.0565 186.855 44.9738 186.855 44.8902C186.855 44.8066 186.871 44.7239 186.902 44.6468C186.932 44.5696 186.977 44.4996 187.034 44.4407C187.09 44.3819 187.158 44.3353 187.231 44.3037C187.305 44.2721 187.384 44.2562 187.464 44.2567H212.578C212.658 44.2562 212.737 44.2721 212.811 44.3037C212.885 44.3353 212.952 44.3819 213.008 44.4407C213.065 44.4996 213.11 44.5696 213.141 44.6468C213.171 44.7239 213.187 44.8066 213.187 44.8902C213.187 44.9738 213.171 45.0565 213.141 45.1336C213.11 45.2108 213.065 45.2808 213.008 45.3397C212.952 45.3985 212.885 45.4451 212.811 45.4767C212.737 45.5083 212.658 45.5242 212.578 45.5237Z" fill="#5B59FE"/>
<path d="M244.437 45.7348H219.323C219.163 45.7337 219.01 45.6665 218.898 45.5478C218.785 45.4291 218.722 45.2686 218.722 45.1014C218.722 44.9341 218.785 44.7736 218.898 44.655C219.01 44.5363 219.163 44.469 219.323 44.4679H244.437C244.516 44.4673 244.596 44.4833 244.669 44.5149C244.743 44.5465 244.81 44.593 244.867 44.6519C244.924 44.7108 244.969 44.7808 244.999 44.858C245.03 44.9351 245.046 45.0178 245.046 45.1014C245.046 45.1849 245.03 45.2677 244.999 45.3448C244.969 45.4219 244.924 45.492 244.867 45.5508C244.81 45.6097 244.743 45.6563 244.669 45.6879C244.596 45.7194 244.516 45.7354 244.437 45.7348Z" fill="#5B59FE"/>
<path d="M276.295 45.946H251.181C251.022 45.9448 250.869 45.8776 250.756 45.7589C250.644 45.6402 250.58 45.4797 250.58 45.3125C250.58 45.1452 250.644 44.9847 250.756 44.8661C250.869 44.7474 251.022 44.6802 251.181 44.679H276.295C276.455 44.6802 276.608 44.7474 276.72 44.8661C276.833 44.9847 276.896 45.1452 276.896 45.3125C276.896 45.4797 276.833 45.6402 276.72 45.7589C276.608 45.8776 276.455 45.9448 276.295 45.946Z" fill="#5B59FE"/>
<path d="M168.107 39.4826C170.685 39.4826 172.775 37.2942 172.775 34.5947C172.775 31.8951 170.685 29.7067 168.107 29.7067C165.529 29.7067 163.44 31.8951 163.44 34.5947C163.44 37.2942 165.529 39.4826 168.107 39.4826Z" fill="#5B59FE"/>
<path d="M200.158 39.4826C202.736 39.4826 204.826 37.2942 204.826 34.5947C204.826 31.8951 202.736 29.7067 200.158 29.7067C197.58 29.7067 195.491 31.8951 195.491 34.5947C195.491 37.2942 197.58 39.4826 200.158 39.4826Z" fill="#5B59FE"/>
<path d="M232.209 39.4826C234.787 39.4826 236.877 37.2942 236.877 34.5947C236.877 31.8951 234.787 29.7067 232.209 29.7067C229.631 29.7067 227.542 31.8951 227.542 34.5947C227.542 37.2942 229.631 39.4826 232.209 39.4826Z" fill="#5B59FE"/>
<path d="M264.26 39.4826C266.838 39.4826 268.928 37.2942 268.928 34.5947C268.928 31.8951 266.838 29.7067 264.26 29.7067C261.682 29.7067 259.593 31.8951 259.593 34.5947C259.593 37.2942 261.682 39.4826 264.26 39.4826Z" fill="#5B59FE"/>
</g>
<defs>
<clipPath id="clip0_1_11435">
<rect width="296" height="206" fill="white"/>
</clipPath>
</defs>
</svg>
